<svg width="1055" height="1814" viewBox="0 0 1055 1814" fill="none" xmlns="http://www.w3.org/2000/svg">
<g opacity="0.8">
<path opacity="0.8" d="M333.652 6.49012C344.733 6.66791 354.911 6.76714 365.031 7.16054C368.365 7.31782 371.816 7.90652 374.993 8.84825C377.307 9.51531 379.7 10.8099 381.327 12.3594C405.427 36.1511 429.429 59.9232 453.509 83.8129C474.256 104.486 494.905 125.139 515.651 145.812C520.495 150.657 525.378 155.306 530.103 160.229C532.123 162.367 533.065 161.229 534.712 159.621C564.741 129.325 594.75 99.1263 624.701 68.7121C626.996 66.4178 628.82 65.4571 632.114 66.3204C643.469 69.2046 654.922 71.5986 667.12 74.3456C629.854 111.76 593.215 148.587 556.184 185.844C560.498 190.277 564.832 194.612 569.165 198.947C583.029 212.735 596.893 226.524 610.757 240.312C629.052 258.455 647.426 276.716 665.722 294.858C678.154 307.137 690.861 319.062 703.156 331.517C713.49 342.049 723.452 352.915 730.608 366.076C737.02 377.863 741.667 390.317 744.313 403.594C746.723 415.499 747.271 427.54 746.701 439.562C745.384 463.979 738.008 486.57 723.277 506.161C716.039 515.828 707.448 524.613 698.956 533.418C680.95 552.047 662.787 570.44 644.547 588.716C628.071 605.306 611.419 621.758 594.865 638.23C582.645 650.368 570.524 662.526 558.049 674.919C563.991 680.901 569.756 686.746 575.521 692.591C592.366 709.322 609.21 726.052 626.074 742.685C648.9 765.202 671.823 787.738 694.531 810.333C706.943 822.71 719.709 834.851 729.023 849.972C736.042 861.27 741.062 873.39 744.374 886.393C747.981 900.475 748.901 914.732 748.076 929.049C746.485 955.858 737.284 979.92 720.337 1000.9C715.61 1006.69 710.353 1012.06 705.195 1017.45C682.384 1040.73 659.455 1064.08 636.468 1087.22C612.205 1111.64 587.688 1135.8 563.249 1160.07C562.229 1161.09 561.209 1162.11 559.895 1163.58C564.739 1168.43 569.406 1173.13 574.092 1177.74C590.25 1193.83 606.507 1209.93 622.665 1226.01C640.274 1243.51 657.883 1261 675.394 1278.48C689.591 1292.64 704.083 1306.35 717.672 1321C732.104 1336.54 741.673 1354.97 746.593 1375.74C750.454 1392.12 751.237 1408.59 749.431 1425.26C746.663 1450.31 736.952 1472.33 720.849 1491.64C715.063 1498.64 708.414 1504.86 702.118 1511.35C674.619 1539.2 647.218 1567.06 619.661 1594.69C601.4 1613.07 582.806 1631.07 564.369 1649.3C560.682 1652.95 560.564 1653.03 564.466 1656.97C579.703 1672.05 595.037 1687.16 610.274 1702.24C623.55 1715.4 636.747 1728.44 650.022 1741.61C671.71 1763.18 693.496 1784.78 715.204 1806.25C716.91 1807.92 718.498 1809.67 720.851 1812.18C715.282 1811.47 710.673 1811.06 706.025 1810.33C697.141 1808.86 688.375 1807.31 679.53 1805.64C674.137 1804.56 668.705 1803.17 663.351 1801.89C662.39 1801.6 661.41 1800.89 660.743 1800.15C636.467 1776.22 612.19 1752.29 587.953 1728.16C571.952 1712.32 556.088 1696.29 540.204 1680.37C539.439 1679.6 538.655 1678.93 537.439 1677.87C530.3 1685.01 523.2 1691.95 516.178 1699.01C504.351 1710.72 492.622 1722.45 480.892 1734.17C475.283 1739.78 469.262 1744.9 464.358 1751.06C460.533 1755.9 456.473 1755.8 451.433 1754.49C442.393 1752.27 433.293 1750.35 424.252 1748.13C423.174 1747.91 422.193 1747.21 420.801 1746.52C427.097 1740.03 433.119 1733.89 439.238 1727.77C457.891 1708.97 476.524 1690.26 495.157 1671.55C500.394 1666.28 505.533 1660.98 510.848 1655.83C512.869 1653.89 513.006 1652.69 510.869 1650.63C493.632 1633.82 476.415 1616.91 459.296 1600.03C440.746 1581.63 422.195 1563.23 403.664 1544.74C387.428 1528.53 370.956 1512.49 354.994 1495.94C341.738 1482.17 332.817 1465.59 327.72 1447.24C323.231 1430.94 320.879 1414.15 322.254 1397.09C324.257 1373.32 331.908 1351.4 346.599 1332.51C353.464 1323.69 361.035 1315.41 368.861 1307.39C389.927 1285.7 411.247 1264.27 432.567 1242.84C457.752 1217.38 483.034 1191.95 508.395 1166.64C510.552 1164.52 510.239 1163.54 508.199 1161.5C487.903 1141.63 467.647 1121.56 447.391 1101.5C426.369 1080.67 405.328 1059.94 384.425 1039.03C371.953 1026.44 359.129 1014.08 347.52 1000.74C336.147 987.757 329.265 972.205 324.972 955.436C321.346 940.943 319.367 926.371 320.114 911.427C320.978 893.855 325.432 877.206 333.377 861.458C341.321 845.711 352.639 832.475 365.113 820.082C380.785 804.453 396.299 788.589 411.99 772.862C426.034 758.743 440.077 744.625 454.121 730.506C469.694 714.858 485.17 699.19 500.665 683.424C503.332 680.796 505.902 678.149 508.844 675.168C504.922 671.324 501.157 667.715 497.51 664.028C475.567 642.197 453.506 620.445 431.563 598.615C405.953 573.196 380.304 547.972 354.93 522.396C340.752 508.136 330.654 491.328 324.95 471.932C319.931 454.712 317.305 437.257 318.739 419.391C320.428 397.701 327.51 377.6 339.632 359.323C347.537 347.341 357.697 337.341 367.68 327.203C385.608 308.966 403.613 290.847 421.638 272.63C437.741 256.374 453.825 240.216 469.908 224.057C481.912 211.978 493.719 199.859 505.782 187.996C508.312 185.545 506.41 184.348 505.037 183.054C497.801 175.895 490.546 168.834 483.31 161.674C467.054 145.571 450.798 129.468 434.64 113.385C413.54 92.4374 392.46 71.3917 371.242 50.5225C358.026 37.5773 345.26 24.4164 334.887 8.98089C334.652 8.62785 334.456 8.07875 333.652 6.49012ZM362.143 389.018C357.043 399.725 354.394 410.923 353.255 422.729C351.9 435.614 353.154 448.205 357.016 460.502C361.741 475.623 369.741 488.646 381.487 499.767C399.41 516.713 416.548 534.523 434.079 551.901C456.63 574.261 479.063 596.699 501.614 619.059C511.32 628.65 521.046 638.143 530.734 647.832C532.694 649.754 533.871 649.99 535.95 647.754C541.658 641.656 547.895 635.969 553.76 630.106C580.219 603.888 606.678 577.671 633.157 551.355C646.906 537.687 660.832 524.157 674.326 510.234C682.544 501.783 691.096 493.194 697.432 483.447C712.633 459.974 716.814 433.989 710.129 406.748C705.64 388.41 695.562 373.034 682.325 359.677C671.285 348.595 660.108 337.69 649.068 326.608C625.125 302.542 601.202 278.377 577.141 254.389C563.12 240.365 548.884 226.4 534.863 212.376C532.726 210.317 531.49 209.866 529.391 212.199C521.605 220.533 513.72 228.848 505.776 236.946C490.281 252.712 474.61 268.341 459.017 284.087C435.264 307.991 411.414 331.875 387.661 355.779C377.639 365.603 367.949 375.8 362.143 389.018ZM536.005 1189.19C535.142 1189.94 534.318 1190.49 533.671 1191.17C528.199 1196.6 522.629 1202.02 517.156 1207.45C496.287 1228.16 475.32 1248.84 454.431 1269.65C433.268 1290.81 412.359 1312.22 391 1333.34C374.485 1349.62 361.775 1367.77 357.987 1391.29C355.691 1405.31 355.768 1419.2 359.159 1432.83C363.373 1449.99 372.118 1464.89 384.708 1477.41C397.375 1490.04 410.004 1502.86 422.671 1515.5C438.927 1531.6 455.184 1547.7 471.44 1563.81C487.01 1579.26 502.481 1594.7 518.051 1610.15C523.169 1615.15 528.307 1620.06 533.425 1625.06C535.641 1627.24 537.19 1627.65 539.877 1624.92C549.331 1615.39 559.275 1606.47 568.709 1597.04C587.558 1578.27 606.329 1559.39 625.08 1540.6C641.026 1524.62 657.031 1508.86 672.8 1492.74C681.391 1483.95 690.453 1475.36 697.73 1465.5C715.775 1441.06 720.799 1413.41 713.644 1383.94C709.234 1365.72 699.371 1350.28 685.978 1337.2C674.722 1326.18 663.211 1315.41 651.818 1304.56C646.426 1299.4 641.17 1294.07 635.895 1288.83C618.266 1271.43 600.598 1254.23 583.087 1236.76C567.38 1220.97 551.791 1205.1 536.005 1189.19ZM534.159 700.529C532.433 702.019 530.864 703.235 529.354 704.667C519.547 714.432 509.74 724.197 499.933 733.963C483.928 749.729 467.924 765.495 452.017 781.28C443.367 789.849 434.717 798.419 426.166 807.008C412.495 820.793 398.922 834.598 385.271 848.285C375.836 857.717 367.834 868.15 362.419 880.426C358.104 890.271 355.945 900.547 354.826 911.235C353.314 925.924 354.98 940.025 360.097 953.695C365.135 967.247 373.155 978.642 383.96 988.861C411.903 1015.36 438.807 1042.98 466.123 1070.06C488.321 1092.15 510.538 1114.14 532.638 1136.2C534.678 1138.24 535.756 1137.95 537.639 1136.18C543.759 1130.06 550.153 1124.1 556.39 1117.91C582.339 1092.2 608.288 1066.49 634.061 1040.65C652.439 1022.19 670.739 1003.62 688.941 985.033C702.396 971.306 709.85 954.441 713.186 935.732C715.384 923.22 715.131 910.728 712.249 898.117C708.231 880.486 699.976 865.168 687.544 852.38C677.308 841.867 666.562 831.864 656.071 821.606C642.952 808.68 629.932 795.774 616.832 782.75C594.654 760.567 572.476 738.384 550.278 716.299C545.003 711.062 539.709 705.923 534.159 700.529Z" fill="url(#paint0_linear)"/>
</g>
<defs>
<linearGradient id="paint0_linear" x1="182.837" y1="1633.45" x2="876.934" y2="174.14" gradientUnits="userSpaceOnUse">
<stop stop-color="#92278F"/>
<stop offset="0.0380488" stop-color="#96227E"/>
<stop offset="0.0829101" stop-color="#9A2172"/>
<stop offset="0.1288" stop-color="#9D2069"/>
<stop offset="0.1759" stop-color="#9E1F64"/>
<stop offset="0.2261" stop-color="#9E1F63"/>
<stop offset="0.2355" stop-color="#A02062"/>
<stop offset="0.339" stop-color="#B42958"/>
<stop offset="0.4479" stop-color="#C6304F"/>
<stop offset="0.5623" stop-color="#D43647"/>
<stop offset="0.6847" stop-color="#DF3A40"/>
<stop offset="0.8205" stop-color="#E63D3B"/>
<stop offset="0.9964" stop-color="#E93E3A"/>
</linearGradient>
</defs>
</svg>
