<svg width="841" height="1776" viewBox="0 0 841 1776" fill="none" xmlns="http://www.w3.org/2000/svg">
<path opacity="0.3" d="M235.955 6.40862C246.817 6.69314 256.689 6.84131 266.62 7.30025C269.93 7.45323 273.271 8.1152 276.373 9.04706C278.597 9.75708 280.95 10.9897 282.556 12.5231C305.995 35.8384 329.307 59.3383 352.619 82.8381C372.747 103.073 392.861 123.407 412.975 143.741C417.68 148.427 422.398 153.013 426.977 157.883C429.01 159.98 429.867 158.887 431.387 157.38C460.88 127.928 490.445 98.688 519.84 69.2224C522.063 67.005 523.897 66.1472 527.112 66.9937C538.129 69.823 549.299 72.2698 561.235 75.0238C524.635 111.371 488.625 147.092 452.151 183.255C456.401 187.575 460.553 191.881 464.803 196.202C478.279 209.767 491.754 223.332 505.243 236.798C523.068 254.697 540.794 272.582 558.619 290.481C570.687 302.54 582.993 314.329 594.935 326.573C605.014 336.944 614.643 347.658 621.454 360.507C627.636 372.059 632.11 384.283 634.664 397.253C637 408.88 637.399 420.645 636.793 432.372C635.429 456.208 628.059 478.209 613.518 497.304C606.367 506.716 597.925 515.244 589.582 523.786C571.953 541.85 554.054 559.675 536.155 577.5C519.902 593.633 503.577 609.555 487.239 625.576C475.221 637.347 463.302 649.131 451.045 661.172C456.802 667.011 462.361 672.824 468.033 678.551C484.351 694.931 500.755 711.423 517.073 727.802C539.261 749.935 561.449 772.069 583.524 794.288C595.578 806.446 607.97 818.348 616.927 833.209C623.672 844.333 628.597 856.216 631.702 868.858C635.152 882.657 635.958 896.597 635.038 910.603C633.347 936.817 624.159 960.283 607.532 980.605C602.922 986.229 597.758 991.473 592.594 996.718C570.095 1019.36 547.695 1042.02 525.025 1064.43C501.173 1088.1 477.038 1111.63 453.101 1135.18C452.059 1136.15 451.103 1137.23 449.809 1138.57C454.514 1143.25 459.02 1147.91 463.541 1152.47C479.234 1168.26 495.012 1184.16 510.705 1199.95C527.819 1217.14 544.834 1234.32 561.948 1251.52C575.68 1265.42 589.777 1278.87 603.031 1293.31C617.081 1308.57 626.195 1326.69 630.879 1346.91C634.623 1362.98 635.242 1379.01 633.302 1395.3C630.441 1419.74 620.721 1441.21 605.019 1459.94C599.339 1466.73 592.851 1472.8 586.532 1479.1C559.501 1506.07 532.556 1533.14 505.439 1559.99C487.441 1577.81 469.187 1595.28 451.103 1612.98C447.487 1616.52 447.374 1616.6 451.184 1620.46C465.995 1635.32 480.82 1650.08 495.631 1664.94C508.495 1677.81 521.346 1690.79 534.209 1703.66C555.318 1724.84 576.327 1746 597.422 1767.28C599.113 1768.93 600.593 1770.64 602.868 1773.18C597.406 1772.53 592.934 1772.01 588.391 1771.29C579.813 1769.8 571.136 1768.3 562.6 1766.52C557.291 1765.49 552.037 1764.06 546.769 1762.73C545.792 1762.49 544.897 1761.66 544.187 1760.96C520.577 1737.42 497.067 1713.89 473.57 1690.26C458.048 1674.7 442.652 1658.95 427.257 1643.21C426.546 1642.5 425.736 1641.79 424.571 1640.72C417.563 1647.63 410.569 1654.44 403.687 1661.16C392.134 1672.49 380.567 1683.92 368.9 1695.33C363.412 1700.74 357.469 1705.77 352.62 1711.67C348.84 1716.39 344.922 1716.26 339.951 1714.97C331.172 1712.75 322.252 1710.81 313.473 1708.6C312.397 1708.35 311.488 1707.62 310.156 1707.03C316.361 1700.82 322.242 1694.76 328.208 1688.82C346.558 1670.65 364.921 1652.39 383.172 1634.21C388.322 1629.06 393.373 1623.9 398.595 1618.97C400.566 1617.12 400.729 1615.93 398.696 1613.84C381.897 1597.29 365.196 1580.76 348.621 1564.04C330.612 1546.01 312.616 1527.89 294.634 1509.67C278.856 1493.77 262.866 1477.94 247.439 1461.68C234.572 1448.1 226.004 1431.88 221.105 1413.94C216.753 1397.9 214.563 1381.55 216.134 1365.01C218.223 1341.77 225.795 1320.51 240.353 1302.02C247.084 1293.46 254.553 1285.4 262.179 1277.67C282.946 1256.61 303.871 1235.87 324.81 1215.03C349.617 1190.28 374.412 1165.63 399.305 1141C401.415 1138.87 401.043 1137.91 399.181 1136.04C379.466 1116.46 359.766 1096.79 340.178 1077.04C319.78 1056.56 299.369 1036.19 279.084 1015.63C266.958 1003.26 254.607 991.058 243.283 977.991C232.315 965.276 225.634 950.022 221.647 933.524C218.252 919.328 216.271 905.125 217.173 890.511C218.119 873.38 222.576 857.137 230.447 841.766C238.317 826.396 249.467 813.598 261.724 801.557C277.133 786.418 292.386 770.954 307.809 755.715C321.613 741.97 335.403 728.324 349.207 714.578C364.518 699.425 379.742 684.16 394.967 668.894C397.542 666.321 400.117 663.748 403.03 660.919C399.207 657.163 395.568 653.532 392.015 650.015C370.637 628.598 349.358 607.195 327.993 585.679C303.16 560.759 278.328 535.838 253.622 510.733C239.903 496.731 230.062 480.234 224.592 461.311C219.741 444.492 217.35 427.406 218.845 409.947C220.661 388.696 227.69 369.173 239.622 351.434C247.483 339.798 257.404 330.06 267.14 320.196C284.814 302.542 302.487 284.888 320.26 267.248C336.048 251.555 351.85 235.763 367.738 220.084C379.445 208.371 391.152 196.659 403.044 185.073C405.493 182.684 403.634 181.52 402.298 180.226C395.291 173.204 388.269 166.282 381.262 159.26C365.47 143.458 349.777 127.669 333.998 111.768C313.515 91.1817 293.145 70.5096 272.549 50.0084C259.771 37.2459 247.317 24.3262 237.284 9.21632C236.97 8.56736 236.741 8.03102 235.955 6.40862ZM261.391 380.274C256.324 390.68 253.707 401.625 252.421 413.157C251.085 425.793 252.222 438.063 255.818 450.066C260.348 464.822 268.077 477.596 279.489 488.555C296.883 505.183 313.547 522.72 330.575 539.803C352.381 561.783 374.285 583.777 396.19 605.77C405.586 615.241 415.094 624.626 424.49 634.096C426.352 635.967 427.528 636.23 429.553 633.985C435.208 628.102 441.219 622.57 447.059 616.813C473.079 591.324 499.086 565.935 525.106 540.446C538.644 527.169 552.353 514.117 565.535 500.488C573.54 492.202 582.041 483.985 588.3 474.45C603.359 451.59 607.558 426.226 601.23 399.614C596.939 381.661 587.302 366.606 574.367 353.519C563.648 342.655 552.818 331.877 542.099 321.013C518.815 297.315 495.629 273.631 472.33 250.032C458.684 236.241 444.925 222.536 431.278 208.746C429.246 206.649 428.084 206.287 425.96 208.518C418.279 216.646 410.612 224.675 402.761 232.578C387.522 247.943 372.113 263.082 356.789 278.335C333.402 301.561 310.028 324.689 286.641 347.916C276.747 357.455 267.195 367.446 261.391 380.274ZM426.173 1162.87C425.271 1163.55 424.482 1164.15 423.891 1164.78C418.516 1170.09 413.055 1175.3 407.679 1180.61C387.147 1200.7 366.516 1220.77 346.069 1240.97C325.271 1261.53 304.643 1282.31 283.66 1302.74C267.448 1318.57 254.824 1336.21 251.064 1359.12C248.786 1372.73 248.727 1386.35 251.934 1399.71C255.979 1416.52 264.368 1431.1 276.593 1443.49C288.917 1455.88 301.115 1468.47 313.426 1480.96C329.204 1496.86 344.996 1512.66 360.788 1528.47C375.855 1543.66 390.923 1558.86 406.103 1573.97C411.078 1578.9 416.067 1583.72 421.041 1588.65C423.173 1590.76 424.731 1591.18 427.306 1588.6C436.551 1579.38 446.336 1570.63 455.666 1561.52C474.214 1543.38 492.69 1525.03 511.152 1506.78C526.814 1491.27 542.548 1475.97 558.026 1460.34C566.468 1451.81 575.392 1443.45 582.57 1433.84C600.382 1410.04 605.408 1383.08 598.672 1354.29C594.467 1336.45 584.943 1321.31 571.98 1308.42C561.05 1297.63 549.895 1287.01 538.852 1276.3C533.594 1271.24 528.561 1266 523.429 1260.75C506.301 1243.65 489.146 1226.76 472.131 1209.57C456.694 1194.12 441.483 1178.5 426.173 1162.87ZM427.494 685.587C425.776 687.067 424.198 688.262 422.805 689.585C413.123 699.052 403.54 708.534 393.858 718.001C378.124 733.298 362.39 748.595 346.742 764.004C338.228 772.32 329.714 780.637 321.299 788.967C307.86 802.258 294.592 815.774 281.153 829.065C271.908 838.29 263.969 848.301 258.683 860.292C254.433 869.902 252.249 879.897 251.014 890.326C249.446 904.646 250.973 918.484 255.891 931.88C260.725 945.163 268.474 956.325 279.005 966.355C306.106 992.396 332.25 1019.52 358.747 1046.28C380.296 1067.92 401.845 1089.56 423.381 1111.31C425.328 1113.29 426.472 1113.04 428.231 1111.27C434.297 1105.34 440.546 1099.54 446.625 1093.51C472.069 1068.55 497.611 1043.6 522.969 1018.52C541.079 1000.63 559.005 982.604 576.945 964.482C590.186 951.164 597.598 934.721 600.915 916.503C603.2 904.301 602.969 892.055 600.22 879.765C596.329 862.573 588.503 847.565 576.418 834.898C566.537 824.554 556.078 814.735 545.859 804.647C533.166 791.997 520.486 779.248 507.807 766.499C486.272 744.758 464.75 722.918 443.214 701.177C437.983 695.914 432.824 690.864 427.494 685.587Z" stroke="#DA1C5C" stroke-width="1" stroke-miterlimit="10"/>
</svg>
